<svg width="48" height="48" viewBox="0 0 48 48" fill="none" xmlns="http://www.w3.org/2000/svg">
<rect width="48" height="48" rx="12" fill="#68B6FF"/>
<path d="M22.2812 11V14M36.7188 11V14M41.875 32V17C41.875 16.2044 41.5491 15.4413 40.9689 14.8787C40.3887 14.3161 39.6018 14 38.7812 14H20.2188C19.3982 14 18.6113 14.3161 18.0311 14.8787C17.4509 15.4413 17.125 16.2044 17.125 17V24.5M41.875 32C41.875 32.7956 41.5491 33.5587 40.9689 34.1213C40.3887 34.6839 39.6018 35 38.7812 35H20.2188C19.3982 35 18.6113 34.6839 18.0311 34.1213M41.875 32V22C41.875 21.2044 41.5491 20.4413 40.9689 19.8787C40.3887 19.3161 39.6018 19 38.7812 19H20.2188C19.3982 19 18.6113 19.3161 18.0311 19.8787C17.4509 20.4413 17.125 21.2044 17.125 22V24.5M17.125 24.5V28.5M29.5 24H29.511V24.0107H29.5V24ZM29.5 27H29.511V27.0107H29.5V27ZM29.5 30H29.511V30.0107H29.5V30ZM26.4062 27H26.4173V27.0107H26.4062V27ZM26.4062 30H26.4173V30.0107H26.4062V30ZM23.3125 27H23.3235V27.0107H23.3125V27ZM23.3125 30H23.3235V30.0107H23.3125V30ZM32.5938 24H32.6048V24.0107H32.5938V24ZM32.5938 27H32.6048V27.0107H32.5938V27ZM32.5938 30H32.6048V30.0107H32.5938V30ZM35.6875 24H35.6985V24.0107H35.6875V24ZM35.6875 27H35.6985V27.0107H35.6875V27Z" stroke="white" stroke-width="1.5" stroke-linecap="round" stroke-linejoin="round"/>
<path d="M6.6875 32.05L12.9375 38.05L22.3125 24.55" stroke="white" stroke-width="1.5" stroke-linecap="round" stroke-linejoin="round"/>
</svg>
